<?xml version="1.0" encoding="UTF-8"?>
<!DOCTYPE svg PUBLIC "-//W3C//DTD SVG 1.1//EN" "http://www.w3.org/Graphics/SVG/1.1/DTD/svg11.dtd">
<!-- Creator: CorelDRAW X7 -->
<svg xmlns="http://www.w3.org/2000/svg" xml:space="preserve" width="1024px" height="500px" version="1.1" style="shape-rendering:geometricPrecision; text-rendering:geometricPrecision; image-rendering:optimizeQuality; fill-rule:evenodd; clip-rule:evenodd"
viewBox="0 0 10240 5000"
 xmlns:xlink="http://www.w3.org/1999/xlink">
 <defs>
  <style type="text/css">
   <![CDATA[
    .fil1 {fill:#ED958D}
    .fil0 {fill:#FBFBFB}
    .fil2 {fill:#FFF1E9}
   ]]>
  </style>
 </defs>
 <g id="Layer_x0020_1">
  <metadata id="CorelCorpID_0Corel-Layer"/>
  <g id="_1689872359440">
   <path class="fil0" d="M2541 3350c60,-51 1130,-23 1287,-23l3623 0c86,0 254,-35 301,39 -46,72 -199,39 -282,39l-4648 0c-235,0 -254,31 -281,-55zm-48 -819c-162,469 -735,470 -565,-38 42,-126 190,-334 332,-353 77,-11 64,1 111,45 68,65 217,70 122,346zm4319 -38c-99,440 -708,574 -581,32 30,-133 271,-491 430,-362 163,133 199,116 151,330zm-1558 0c-105,458 -731,555 -584,23 37,-131 175,-321 312,-369 120,-41 111,37 215,94 95,52 81,148 57,252zm-2203 -284l55 27 103 18c27,83 -52,199 -78,282 -58,183 -6,205 -19,323 -204,45 -148,-67 -164,-207 -79,41 -114,230 -295,214 -172,-71 -66,-494 178,-666 141,-99 125,-18 220,9zm456 378c128,-47 393,-521 577,-297 -33,114 -224,244 -188,460l99 35c-82,114 -234,117 -266,-16 -34,-140 43,-214 69,-328 -200,65 -400,516 -491,457 -108,-138 112,-675 239,-777 283,65 -31,337 -39,466zm5407 95c-37,356 292,11 353,-11 -8,120 -310,337 -462,156 -131,-158 -11,-403 98,-532 217,-255 441,-174 402,15 -55,270 -230,253 -391,372zm-396 -132l114 29 -111 69c-13,133 1,229 -115,308 -270,185 -480,-253 26,-377 -3,-187 -148,-341 62,-486 135,-94 356,131 189,309l-18 -62c-11,-53 18,-11 -16,-78 -135,20 -133,158 -131,288zm-609 -136c173,-80 176,-293 318,-240 9,58 0,120 1,188 1,91 22,74 -45,140 -58,-5 -98,-72 -144,-113 -191,122 -253,271 -296,490 -70,3 -79,-18 -125,-62 4,-136 156,-595 239,-694 67,-5 87,7 144,47 -13,104 -81,126 -92,244zm-854 344c81,-17 203,-210 255,-292 96,-152 69,-326 286,-265 30,100 -74,213 -113,302 -83,190 -17,228 -39,360 -171,-24 -145,-101 -201,-199 -119,116 -187,326 -360,112 -25,-217 115,-507 281,-643l126 29c-22,140 -260,367 -235,596zm-2512 -590c78,46 50,-4 122,40 -39,56 -109,41 -183,66 -67,146 -187,384 -133,551 96,20 111,-16 190,-36 -20,129 -303,162 -362,0 -42,-116 73,-388 110,-506 -88,-46 -91,17 -90,-103l141 -10c94,-129 145,-365 333,-206l-128 204zm-3427 462c76,1 91,9 151,54 -16,106 -129,170 -70,293 170,29 363,-324 410,-463 120,-349 105,-489 136,-781 88,-16 124,1 202,44 41,151 -239,1376 -728,1276 -234,-49 -214,-261 -101,-423zm5001 -28c-2,78 -136,203 -197,257 -337,302 -671,-106 -488,-621 72,-202 249,-420 455,-491 447,-154 496,251 275,362 -59,-19 -61,-23 -92,-76 20,-74 131,-134 101,-214 -48,-129 -355,0 -519,447 -44,122 -112,488 27,563 143,77 343,-211 438,-227zm-5883 981c200,44 965,11 1223,11 2036,0 4072,0 6108,0 350,0 2259,23 2438,-11 6,-233 17,-2111 -11,-2188 -87,-31 -4392,-11 -4874,-11l-3680 0c-377,0 -835,-24 -1206,4l2 2195z"/>
   <path class="fil1" d="M232 1388c371,-28 829,-4 1206,-4l3680 0c482,0 4787,-20 4874,11 28,77 17,1955 11,2188 -179,34 -2088,11 -2438,11 -2036,0 -4072,0 -6108,0 -258,0 -1023,33 -1223,-11l-2 -2195zm-92 -121l9960 0 0 2466 -9960 0 0 -2466z"/>
   <path class="fil1" d="M3828 3327c-157,0 -1227,-28 -1287,23 27,86 46,55 281,55l4648 0c83,0 236,33 282,-39 -47,-74 -215,-39 -301,-39l-3623 0z"/>
   <path class="fil1" d="M6117 2602c-95,16 -295,304 -438,227 -139,-75 -71,-441 -27,-563 164,-447 471,-576 519,-447 30,80 -81,140 -101,214 31,53 33,57 92,76 221,-111 172,-516 -275,-362 -206,71 -383,289 -455,491 -183,515 151,923 488,621 61,-54 195,-179 197,-257z"/>
   <path class="fil1" d="M1116 2630c-113,162 -133,374 101,423 489,100 769,-1125 728,-1276 -78,-43 -114,-60 -202,-44 -31,292 -16,432 -136,781 -47,139 -240,492 -410,463 -59,-123 54,-187 70,-293 -60,-45 -75,-53 -151,-54z"/>
   <path class="fil1" d="M3507 2587c8,-129 322,-401 39,-466 -127,102 -347,639 -239,777 91,59 291,-392 491,-457 -26,114 -103,188 -69,328 32,133 184,130 266,16l-99 -35c-36,-216 155,-346 188,-460 -184,-224 -449,250 -577,297z"/>
   <path class="fil1" d="M7055 2758c-25,-229 213,-456 235,-596l-126 -29c-166,136 -306,426 -281,643 173,214 241,4 360,-112 56,98 30,175 201,199 22,-132 -44,-170 39,-360 39,-89 143,-202 113,-302 -217,-61 -190,113 -286,265 -52,82 -174,275 -255,292z"/>
   <path class="fil1" d="M3106 2236c-37,130 -249,532 -391,534 -41,-189 163,-444 338,-495l-2 -66c-95,-27 -79,-108 -220,-9 -244,172 -350,595 -178,666 181,16 216,-173 295,-214 16,140 -40,252 164,207 13,-118 -39,-140 19,-323 26,-83 105,-199 78,-282l-103 -18z"/>
   <path class="fil1" d="M2070 2811c-63,-197 144,-559 326,-519 21,204 -89,544 -326,519zm423 -280c95,-276 -54,-281 -122,-346 -47,-44 -34,-56 -111,-45 -142,19 -290,227 -332,353 -170,508 403,507 565,38z"/>
   <path class="fil1" d="M4823 2808c-78,-188 148,-550 323,-517 18,194 -89,561 -323,517zm431 -315c24,-104 38,-200 -57,-252 -104,-57 -95,-135 -215,-94 -137,48 -275,238 -312,369 -147,532 479,435 584,-23z"/>
   <path class="fil1" d="M6382 2803c-68,-174 136,-538 322,-514 19,124 -1,253 -67,357 -50,79 -153,196 -255,157zm430 -310c48,-214 12,-197 -151,-330 -159,-129 -400,229 -430,362 -127,542 482,408 581,-32z"/>
   <path class="fil1" d="M8240 2919c-18,-106 89,-215 186,-222 3,109 -68,232 -186,222zm278 -369c-2,-130 -4,-268 131,-288 34,67 5,25 16,78l18 62c167,-178 -54,-403 -189,-309 -210,145 -65,299 -62,486 -506,124 -296,562 -26,377 116,-79 102,-175 115,-308l111 -69 -114 -29z"/>
   <path class="fil1" d="M8942 2592c3,-121 129,-305 265,-298 -5,138 -140,275 -265,298zm-28 90c161,-119 336,-102 391,-372 39,-189 -185,-270 -402,-15 -109,129 -229,374 -98,532 152,181 454,-36 462,-156 -61,22 -390,367 -353,11z"/>
   <path class="fil1" d="M4671 1964c-188,-159 -239,77 -333,206l-141 10c-1,120 2,57 90,103 -37,118 -152,390 -110,506 59,162 342,129 362,0 -79,20 -94,56 -190,36 -54,-167 66,-405 133,-551 74,-25 144,-10 183,-66 -72,-44 -44,6 -122,-40l128 -204z"/>
   <path class="fil1" d="M7909 2414c11,-118 79,-140 92,-244 -57,-40 -77,-52 -144,-47 -83,99 -235,558 -239,694 46,44 55,65 125,62 43,-219 105,-368 296,-490 46,41 86,108 144,113 67,-66 46,-49 45,-140 -1,-68 8,-130 -1,-188 -142,-53 -145,160 -318,240z"/>
   <path class="fil0" d="M6382 2803c102,39 205,-78 255,-157 66,-104 86,-233 67,-357 -186,-24 -390,340 -322,514z"/>
   <path class="fil0" d="M2070 2811c237,25 347,-315 326,-519 -182,-40 -389,322 -326,519z"/>
   <path class="fil0" d="M4823 2808c234,44 341,-323 323,-517 -175,-33 -401,329 -323,517z"/>
   <path class="fil0" d="M3106 2236l-55 -27 2 66c-175,51 -379,306 -338,495 142,-2 354,-404 391,-534z"/>
   <path class="fil2" d="M8942 2592c125,-23 260,-160 265,-298 -136,-7 -262,177 -265,298z"/>
   <path class="fil2" d="M8240 2919c118,10 189,-113 186,-222 -97,7 -204,116 -186,222z"/>
  </g>
 </g>
</svg>
